<svg id="Layer_1" data-name="Layer 1" xmlns="http://www.w3.org/2000/svg" viewBox="0 0 2000 1051.46"><defs><style>.cls-1{fill:#13ace1;fill-rule:evenodd;}</style></defs><path class="cls-1" d="M880.75,299.64c15.14,0,29,1.22,43.58,2.42C958.23,130.15,1110.16,0,1292.36,0,1500,0,1668.28,168.29,1668.28,375.91a386.55,386.55,0,0,1-5.45,65.38,266.52,266.52,0,0,1,31.47-1.81c168.9,0,305.7,137.4,305.7,306.28s-136.8,305.7-305.7,305.7H519.37c-37.54,0-67.8-30.89-67.8-68.41h0c0-36.93,30.26-67.79,67.8-67.79H923.13c36.91,0,67.79-30.28,67.79-67.8h0c0-37.53-30.88-67.8-67.79-67.8h-566c-36.93,0-67.79-30.87-67.79-68.4h0c0-36.93,30.86-67.79,67.79-67.79H506.66C523,451,684,299.64,880.75,299.64Zm-717.92,480h-95C30.88,779.66,0,748.79,0,711.26H0c0-36.93,30.88-67.79,67.79-67.79h95c37.53,0,67.8,30.86,67.8,67.79h0c0,37.53-30.27,68.4-67.8,68.4Z"/></svg>